
@startuml
'Automatically generated by spec-parser v3.0.1 on 2025-04-04T17:26:45.133432+00:00

title SPDXv3 model
scale 4000*4000
hide methods
skinparam packageStyle folder

package Core {
}
package Security {
}
package Operations {
}
class Core.Agent {
}
class Core.Annotation {
	annotationType 1:1
	contentType 0:1
	statement 0:1
	subject 1:1
}
abstract Core.Artifact {
	builtTime 0:1
	originatedBy 0:*
	releaseTime 0:1
	standardName 0:*
	suppliedBy 0:1
	supportLevel 0:*
	validUntilTime 0:1
}
class Core.Bom {
}
class Core.Bundle {
	context 0:1
}
class Core.CreationInfo {
	comment 0:1
	created 1:1
	createdBy 1:*
	createdUsing 0:*
	specVersion 1:1
}
class Core.DictionaryEntry {
	key 1:1
	value 0:1
}
abstract Core.Element {
	comment 0:1
	creationInfo 1:1
	description 0:1
	extension 0:*
	externalIdentifier 0:*
	externalRef 0:*
	name 0:1
	spdxId 1:1
	summary 0:1
	verifiedUsing 0:*
}
abstract Core.ElementCollection {
	element 0:*
	profileConformance 0:*
	rootElement 0:*
}
class Core.ExternalIdentifier {
	comment 0:1
	externalIdentifierType 1:1
	identifier 1:1
	identifierLocator 0:*
	issuingAuthority 0:1
}
class Core.ExternalMap {
	definingArtifact 0:1
	externalSpdxId 1:1
	locationHint 0:1
	verifiedUsing 0:*
}
class Core.ExternalRef {
	comment 0:1
	contentType 0:1
	externalRefType 0:1
	locator 0:*
}
class Core.Hash {
	algorithm 1:1
	hashValue 1:1
}
class Core.IndividualElement {
}
abstract Core.IntegrityMethod {
	comment 0:1
}
class Core.LifecycleScopedRelationship {
	scope 0:1
}
class Core.NamespaceMap {
	namespace 1:1
	prefix 1:1
}
class Core.Organization {
}
class Core.PackageVerificationCode {
	algorithm 1:1
	hashValue 1:1
	packageVerificationCodeExcludedFile 0:*
}
class Core.Person {
}
class Core.PositiveIntegerRange {
	beginIntegerRange 1:1
	endIntegerRange 1:1
}
class Core.Relationship {
	completeness 0:1
	endTime 0:1
	from 1:1
	relationshipType 1:1
	startTime 0:1
	to 1:*
}
class Core.SoftwareAgent {
}
class Core.SpdxDocument {
	dataLicense 0:1
	import 0:*
	namespaceMap 0:*
}
class Core.Tool {
}
abstract Security.VulnAssessmentRelationship {
	/Core/suppliedBy 0:1
	assessedElement 0:1
	modifiedTime 0:1
	publishedTime 0:1
	withdrawnTime 0:1
}
class Security.CvssV2VulnAssessmentRelationship {
	score 1:1
	vectorString 1:1
}
class Security.CvssV3VulnAssessmentRelationship {
	score 1:1
	severity 1:1
	vectorString 1:1
}
class Security.CvssV4VulnAssessmentRelationship {
	score 1:1
	severity 1:1
	vectorString 1:1
}
class Security.EpssVulnAssessmentRelationship {
	percentile 1:1
	probability 1:1
}
class Security.ExploitCatalogVulnAssessmentRelationship {
	catalogType 1:1
	exploited 1:1
	locator 1:1
}
class Security.SsvcVulnAssessmentRelationship {
	decisionType 1:1
}
class Security.VexAffectedVulnAssessmentRelationship {
	actionStatement 1:1
	actionStatementTime 0:1
}
class Security.VexFixedVulnAssessmentRelationship {
}
class Security.VexNotAffectedVulnAssessmentRelationship {
	impactStatement 0:1
	impactStatementTime 0:1
	justificationType 0:1
}
class Security.VexUnderInvestigationVulnAssessmentRelationship {
}
abstract Security.VexVulnAssessmentRelationship {
	statusNotes 0:1
	vexVersion 0:1
}
class Security.Vulnerability {
	modifiedTime 0:1
	publishedTime 0:1
	withdrawnTime 0:1
}
class Operations.ApplicationFacts {
	applicationFactsComment 0:1
	contact 1:1
	contractSetup 0:1
	distributedDeliverables 1:*
	distributionTermsTowardsCustomer 0:1
	documentationLink 1:1
	fossComplianceBundleProvision 1:1
	fossTermsTowardsCustomer 0:1
	productAccessURL 0:1
	productOwner 0:1
	relationType 1:1
	releaseCycles 1:1
	scope 1:1
	supplyChainContext 0:1
	technicalDeployment 1:1
}
class Operations.DeliverableFacts {
	applicationCategory 1:1
	applicationType 1:1
	consistsOf 1:*
	contact 1:*
	deliverableComment 0:1
	dependencyManager 1:*
	developedBy 1:*
	distributionMethod 1:n
	environmentFramework 1:*
	fossComplianceBundleStorage 1:1
	linkToArchitecture 1:1
	operatingSystem 1:1
	osmConcept 1:1
	packageManager 1:*
	programmingLanguage 1:*
	reviews 1:*
}
class Operations.Delivery {
}
class Operations.SupplierDeliverableFacts {
	deliverableFromSupplier 1:*
	distributionTermsFromSupplier 0:1
	fossComplianceBundleConsumption 1:*
	fossTermsTowardsSupplier 0:1
	supplierFossContact 1:*
	supplierName 1:*
}
class Operations.Country {
	countryCode 1:1
}
class Operations.ExportControlAssessmentRelationship {
	classification 1:n
	countryOfOrigin 0:n
	exportControlQandA 0:n
	manufacturer 0:n
	notRequired 0:1
	purpose 0:1
	specialTechnology 0:1
}
class Operations.ExportControlClassification {
	classificationComment 0:n
	classificationSystem 1:1
	classificationValue 1:1
}
class Operations.ObligationsAssessmentRelationship {
	obligation 1:n
}
class Operations.QandA {
	answer 0:1
	question 1:1
}
enum Core.AnnotationType {
}
enum Core.ExternalRefType {
}
enum Core.HashAlgorithm {
}
enum Core.LifecycleScopeType {
}
enum Core.PresenceType {
}
enum Core.ProfileIdentifierType {
}
enum Core.RelationshipCompleteness {
}
enum Core.RelationshipType {
}
enum Core.SupportType {
}
enum Core.ExternalIdentifierType {
}
enum Security.CvssSeverityType {
}
enum Security.ExploitCatalogType {
}
enum Security.SsvcDecisionType {
}
enum Security.VexJustificationType {
}
enum Operations.ApplicationType {
}
enum Operations.ClassificationSystem {
}
enum Operations.CountryCode {
}
enum Operations.SpecialTechnology {
}
class Core.DateTime {
}
class Core.MediaType {
}
class Core.SemVer {
}
Core.Agent --|> Element
Core.Annotation --|> Element
Core.Artifact --|> Element
Core.Bom --|> Bundle
Core.Bundle --|> ElementCollection
Core.ElementCollection --|> Element
Core.Hash --|> IntegrityMethod
Core.IndividualElement --|> Element
Core.LifecycleScopedRelationship --|> Relationship
Core.Organization --|> Agent
Core.PackageVerificationCode --|> IntegrityMethod
Core.Person --|> Agent
Core.Relationship --|> Element
Core.SoftwareAgent --|> Agent
Core.SpdxDocument --|> ElementCollection
Core.Tool --|> Element
Security.VulnAssessmentRelationship --|> Relationship
Security.CvssV2VulnAssessmentRelationship --|> VulnAssessmentRelationship
Security.CvssV3VulnAssessmentRelationship --|> VulnAssessmentRelationship
Security.CvssV4VulnAssessmentRelationship --|> VulnAssessmentRelationship
Security.EpssVulnAssessmentRelationship --|> VulnAssessmentRelationship
Security.ExploitCatalogVulnAssessmentRelationship --|> VulnAssessmentRelationship
Security.SsvcVulnAssessmentRelationship --|> VulnAssessmentRelationship
Security.VexAffectedVulnAssessmentRelationship --|> VexVulnAssessmentRelationship
Security.VexFixedVulnAssessmentRelationship --|> VexVulnAssessmentRelationship
Security.VexNotAffectedVulnAssessmentRelationship --|> VexVulnAssessmentRelationship
Security.VexUnderInvestigationVulnAssessmentRelationship --|> VexVulnAssessmentRelationship
Security.VexVulnAssessmentRelationship --|> VulnAssessmentRelationship
Security.Vulnerability --|> Artifact
Operations.ApplicationFacts --|> Delivery
Operations.DeliverableFacts --|> Delivery
Operations.Delivery --|> Relationship
Operations.SupplierDeliverableFacts --|> Delivery
Operations.Country --|> Agent
Operations.ExportControlAssessmentRelationship --|> VulnAssessmentRelationship
Operations.ObligationsAssessmentRelationship --|> VulnAssessmentRelationship
Core.Annotation::annotationType --> AnnotationType
Core.Annotation::contentType --> MediaType
Core.Annotation::subject --> Element
Core.Artifact::builtTime --> DateTime
Core.Artifact::originatedBy --> Agent
Core.Artifact::releaseTime --> DateTime
Core.Artifact::suppliedBy --> Agent
Core.Artifact::supportLevel --> SupportType
Core.Artifact::validUntilTime --> DateTime
Core.CreationInfo::created --> DateTime
Core.CreationInfo::createdBy --> Agent
Core.CreationInfo::createdUsing --> Tool
Core.CreationInfo::specVersion --> SemVer
Core.Element::creationInfo --> CreationInfo
Core.Element::extension --> Extension
Core.Element::externalIdentifier --> ExternalIdentifier
Core.Element::externalRef --> ExternalRef
Core.Element::verifiedUsing --> IntegrityMethod
Core.ElementCollection::element --> Element
Core.ElementCollection::profileConformance --> ProfileIdentifierType
Core.ElementCollection::rootElement --> Element
Core.ExternalIdentifier::externalIdentifierType --> ExternalIdentifierType
Core.ExternalMap::definingArtifact --> Artifact
Core.ExternalMap::verifiedUsing --> IntegrityMethod
Core.ExternalRef::contentType --> MediaType
Core.ExternalRef::externalRefType --> ExternalRefType
Core.Hash::algorithm --> HashAlgorithm
Core.LifecycleScopedRelationship::scope --> LifecycleScopeType
Core.PackageVerificationCode::algorithm --> HashAlgorithm
Core.Relationship::completeness --> RelationshipCompleteness
Core.Relationship::endTime --> DateTime
Core.Relationship::from --> Element
Core.Relationship::relationshipType --> RelationshipType
Core.Relationship::startTime --> DateTime
Core.Relationship::to --> Element
Core.SpdxDocument::dataLicense --> AnyLicenseInfo
Core.SpdxDocument::import --> ExternalMap
Core.SpdxDocument::namespaceMap --> NamespaceMap
Security.VulnAssessmentRelationship::/Core/suppliedBy --> Agent
Security.VulnAssessmentRelationship::assessedElement --> SoftwareArtifact
Security.VulnAssessmentRelationship::modifiedTime --> DateTime
Security.VulnAssessmentRelationship::publishedTime --> DateTime
Security.VulnAssessmentRelationship::withdrawnTime --> DateTime
Security.CvssV3VulnAssessmentRelationship::severity --> CvssSeverityType
Security.CvssV4VulnAssessmentRelationship::severity --> CvssSeverityType
Security.ExploitCatalogVulnAssessmentRelationship::catalogType --> ExploitCatalogType
Security.SsvcVulnAssessmentRelationship::decisionType --> SsvcDecisionType
Security.VexAffectedVulnAssessmentRelationship::actionStatementTime --> DateTime
Security.VexNotAffectedVulnAssessmentRelationship::impactStatementTime --> DateTime
Security.VexNotAffectedVulnAssessmentRelationship::justificationType --> VexJustificationType
Security.Vulnerability::modifiedTime --> DateTime
Security.Vulnerability::publishedTime --> DateTime
Security.Vulnerability::withdrawnTime --> DateTime
Operations.ApplicationFacts::contact --> Agent
Operations.ApplicationFacts::contractSetup --> contractSetupType
Operations.ApplicationFacts::distributedDeliverables --> Artifact
Operations.ApplicationFacts::distributionTermsTowardsCustomer --> Artifact
Operations.ApplicationFacts::fossComplianceBundleProvision --> fossComplianceBundleProvisionType
Operations.ApplicationFacts::fossTermsTowardsCustomer --> Artifact
Operations.ApplicationFacts::productOwner --> Person
Operations.ApplicationFacts::relationType --> relationTypeType
Operations.ApplicationFacts::releaseCycles --> releaseCyclesType
Operations.ApplicationFacts::scope --> scopeType
Operations.ApplicationFacts::supplyChainContext --> supplyChainContextType
Operations.ApplicationFacts::technicalDeployment --> deploymentType
Operations.DeliverableFacts::applicationCategory --> ApplicationCategoryType
Operations.DeliverableFacts::applicationType --> ApplicationType
Operations.DeliverableFacts::consistsOf --> Artifact
Operations.DeliverableFacts::contact --> Agent
Operations.DeliverableFacts::dependencyManager --> DependencyManagerType
Operations.DeliverableFacts::developedBy --> Agent
Operations.DeliverableFacts::distributionMethod --> DistributionMethodType
Operations.DeliverableFacts::environmentFramework --> EnvironmentFrameworkType
Operations.DeliverableFacts::operatingSystem --> OperatingSystemType
Operations.DeliverableFacts::packageManager --> PackageManagerType
Operations.DeliverableFacts::programmingLanguage --> ProgrammingLanguageType
Operations.SupplierDeliverableFacts::deliverableFromSupplier --> Artifact
Operations.SupplierDeliverableFacts::distributionTermsFromSupplier --> Artifact
Operations.SupplierDeliverableFacts::fossComplianceBundleConsumption --> fossComplianceBundleProvisionType
Operations.SupplierDeliverableFacts::fossTermsTowardsSupplier --> Artifact
Operations.SupplierDeliverableFacts::supplierFossContact --> Agent
Operations.SupplierDeliverableFacts::supplierName --> Agent
Operations.Country::countryCode --> CountryCode
Operations.ExportControlAssessmentRelationship::classification --> ExportControlClassification
Operations.ExportControlAssessmentRelationship::countryOfOrigin --> Country
Operations.ExportControlAssessmentRelationship::exportControlQandA --> QandA
Operations.ExportControlAssessmentRelationship::manufacturer --> Organization
Operations.ExportControlClassification::classificationComment --> comment

@enduml
